<svg width="145" height="145" viewBox="0 0 145 145" fill="none" xmlns="http://www.w3.org/2000/svg">
<g clip-path="url(#clip0_2001_2)">
<path d="M145 72.5C145 112.541 112.541 145 72.5 145C32.4593 145 0 112.541 0 72.5C0 32.4593 32.4593 0 72.5 0C112.541 0 145 32.4593 145 72.5Z" fill="#1D2633"/>
<path d="M126.356 91.0116C128.804 91.0116 130.546 93.3911 129.625 95.6596C120.471 118.217 98.343 134.125 72.4998 134.125C46.6568 134.125 24.5291 118.217 15.3748 95.6596C14.4541 93.3911 16.1955 91.0116 18.6439 91.0116H126.356Z" fill="#EDEBDE"/>
<path d="M129.625 49.3402C130.546 51.6089 128.804 53.9884 126.356 53.9884H18.6439C16.1956 53.9884 14.4541 51.6089 15.3748 49.3402C24.5291 26.7828 46.6568 10.875 72.4998 10.875C98.343 10.875 120.471 26.7828 129.625 49.3402Z" fill="#EDEBDE"/>
<path d="M61.6248 11.8315C65.155 11.203 68.7891 10.875 72.5 10.875C76.2107 10.875 79.8448 11.203 83.3748 11.8315V53.9884H61.6248V11.8315Z" fill="#AC2828"/>
<path d="M83.3757 91.0116H61.6237C61.578 100.469 59.8549 109.844 56.5335 118.702L52.0523 130.652C58.4506 132.901 65.3323 134.125 72.4998 134.125C79.6672 134.125 86.5489 132.901 92.9472 130.652L88.4659 118.702C85.1445 109.844 83.4214 100.469 83.3757 91.0116Z" fill="#AC2828"/>
<path d="M83.375 11.8315C91.2427 13.2323 98.594 16.1262 105.125 20.2097V53.9884H83.375V11.8315Z" fill="#306A9F"/>
<path d="M39.8748 20.2097C46.4058 16.1262 53.7569 13.2323 61.6248 11.8315V53.9884H39.8748V20.2097Z" fill="#DEB038"/>
<path d="M39.8719 91.0116H61.6237C61.5782 100.429 59.8696 109.764 56.5759 118.588L52.0523 130.652C42.1606 127.174 33.4241 121.243 26.5723 113.59L27.6415 112.91C35.1518 108.13 39.7423 99.8954 39.8719 91.0116Z" fill="#DEB038"/>
<path d="M24.424 78.576C22.776 78.576 21.396 78.244 20.284 77.58C19.172 76.916 18.332 75.964 17.764 74.724C17.196 73.476 16.912 71.984 16.912 70.248C16.912 68.624 17.172 67.188 17.692 65.94C18.22 64.692 18.988 63.716 19.996 63.012C21.012 62.3 22.252 61.944 23.716 61.944C24.636 61.944 25.452 62.08 26.164 62.352C26.876 62.616 27.48 62.956 27.976 63.372C28.48 63.788 28.868 64.216 29.14 64.656C29.052 64.776 28.904 64.94 28.696 65.148C28.488 65.348 28.26 65.552 28.012 65.76C27.772 65.968 27.54 66.14 27.316 66.276C26.988 65.764 26.644 65.364 26.284 65.076C25.932 64.78 25.54 64.572 25.108 64.452C24.676 64.332 24.18 64.272 23.62 64.272C23.124 64.272 22.624 64.392 22.12 64.632C21.624 64.872 21.168 65.236 20.752 65.724C20.336 66.212 20 66.828 19.744 67.572C19.496 68.316 19.372 69.188 19.372 70.188C19.372 71.468 19.552 72.572 19.912 73.5C20.28 74.42 20.836 75.132 21.58 75.636C22.332 76.132 23.284 76.38 24.436 76.38C25.3 76.38 25.988 76.2 26.5 75.84C27.012 75.48 27.376 75.008 27.592 74.424C27.816 73.84 27.928 73.212 27.928 72.54C27.928 72.396 27.924 72.252 27.916 72.108C27.916 71.956 27.908 71.816 27.892 71.688C27.716 71.648 27.416 71.6 26.992 71.544C26.576 71.48 26.108 71.416 25.588 71.352C25.076 71.288 24.58 71.232 24.1 71.184C23.62 71.128 23.228 71.096 22.924 71.088C22.916 70.936 22.912 70.748 22.912 70.524C22.912 70.292 22.916 70.056 22.924 69.816C22.932 69.576 22.94 69.384 22.948 69.24C23.548 69.264 24.276 69.316 25.132 69.396C25.988 69.476 26.852 69.576 27.724 69.696C28.604 69.816 29.376 69.952 30.04 70.104C30.096 70.432 30.136 70.78 30.16 71.148C30.192 71.508 30.208 71.852 30.208 72.18C30.208 73.404 30.004 74.5 29.596 75.468C29.196 76.436 28.572 77.196 27.724 77.748C26.876 78.3 25.776 78.576 24.424 78.576ZM43.7727 75.324C43.6127 75.548 43.3767 75.808 43.0647 76.104C42.7527 76.392 42.3647 76.672 41.9007 76.944C41.4367 77.208 40.8967 77.428 40.2807 77.604C39.6647 77.78 38.9687 77.868 38.1927 77.868C36.9927 77.868 35.9407 77.624 35.0367 77.136C34.1327 76.648 33.4327 75.936 32.9367 75C32.4407 74.056 32.1927 72.908 32.1927 71.556C32.1927 70.26 32.4607 69.136 32.9967 68.184C33.5407 67.232 34.2847 66.496 35.2287 65.976C36.1727 65.456 37.2567 65.196 38.4807 65.196C40.0167 65.196 41.2127 65.664 42.0687 66.6C42.9327 67.536 43.4127 68.792 43.5087 70.368C43.5247 70.624 43.5327 70.872 43.5327 71.112C43.5327 71.344 43.5207 71.584 43.4967 71.832C43.3927 71.824 43.1767 71.816 42.8487 71.808C42.5287 71.792 42.1527 71.78 41.7207 71.772C41.2887 71.756 40.8527 71.744 40.4127 71.736C39.9807 71.72 39.6087 71.712 39.2967 71.712C38.4887 71.712 37.6607 71.752 36.8127 71.832C35.9647 71.912 35.2087 72.004 34.5447 72.108C34.5527 72.316 34.5727 72.52 34.6047 72.72C34.6367 72.92 34.6767 73.112 34.7247 73.296C34.8607 73.784 35.1087 74.208 35.4687 74.568C35.8287 74.92 36.2567 75.192 36.7527 75.384C37.2567 75.576 37.7887 75.672 38.3487 75.672C38.9407 75.672 39.4567 75.584 39.8967 75.408C40.3367 75.232 40.7127 75.016 41.0247 74.76C41.3447 74.504 41.6007 74.26 41.7927 74.028C41.9927 73.796 42.1447 73.624 42.2487 73.512C42.2967 73.552 42.3887 73.64 42.5247 73.776C42.6687 73.904 42.8207 74.06 42.9807 74.244C43.1487 74.428 43.3047 74.616 43.4487 74.808C43.6007 74.992 43.7087 75.164 43.7727 75.324ZM34.5807 70.5C35.1567 70.404 35.8327 70.32 36.6087 70.248C37.3927 70.176 38.2807 70.14 39.2727 70.14C39.7927 70.14 40.2327 70.148 40.5927 70.164C40.9607 70.172 41.2167 70.184 41.3607 70.2C41.3607 69.936 41.3287 69.656 41.2647 69.36C41.1767 68.96 41.0167 68.572 40.7847 68.196C40.5527 67.82 40.2367 67.508 39.8367 67.26C39.4447 67.004 38.9487 66.876 38.3487 66.876C37.6607 66.876 37.0327 67.024 36.4647 67.32C35.9047 67.608 35.4567 68.024 35.1207 68.568C34.7847 69.104 34.6047 69.748 34.5807 70.5ZM47.9069 67.368C48.1469 66.96 48.4949 66.588 48.9509 66.252C49.4149 65.916 49.9349 65.648 50.5109 65.448C51.0949 65.248 51.6789 65.148 52.2629 65.148C52.6389 65.148 53.0189 65.184 53.4029 65.256C53.7869 65.32 54.0869 65.412 54.3029 65.532L53.8229 67.944C53.6309 67.864 53.3829 67.78 53.0789 67.692C52.7829 67.596 52.4149 67.548 51.9749 67.548C51.5029 67.548 51.0309 67.636 50.5589 67.812C50.0949 67.98 49.6669 68.212 49.2749 68.508C48.8829 68.804 48.5549 69.144 48.2909 69.528C48.4029 70.088 48.5109 70.772 48.6149 71.58C48.7269 72.388 48.8269 73.216 48.9149 74.064C49.0029 74.912 49.0749 75.688 49.1309 76.392C49.1869 77.088 49.2149 77.612 49.2149 77.964C48.8709 77.996 48.4509 78.016 47.9549 78.024C47.4589 78.032 47.0029 78.032 46.5869 78.024C46.5869 77.28 46.5709 76.496 46.5389 75.672C46.5069 74.84 46.4549 73.992 46.3829 73.128C46.3189 72.256 46.2349 71.388 46.1309 70.524C46.0269 69.66 45.9029 68.824 45.7589 68.016C45.6229 67.2 45.4669 66.428 45.2909 65.7C45.5069 65.636 45.7589 65.572 46.0469 65.508C46.3429 65.444 46.6149 65.388 46.8629 65.34C47.1109 65.292 47.2789 65.264 47.3669 65.256C47.4709 65.528 47.5789 65.88 47.6909 66.312C47.8029 66.744 47.8749 67.096 47.9069 67.368ZM61.1491 78.252C60.1491 78.252 59.2411 78.12 58.4251 77.856C57.6171 77.584 56.9731 77.152 56.4931 76.56C56.0131 75.96 55.7731 75.164 55.7731 74.172C55.7731 73.22 56.0411 72.432 56.5771 71.808C57.1131 71.184 57.8371 70.724 58.7491 70.428C59.6691 70.124 60.6971 69.972 61.8331 69.972C62.3611 69.972 62.8771 70.012 63.3811 70.092C63.8851 70.164 64.3211 70.252 64.6891 70.356C65.0571 70.452 65.3051 70.528 65.4331 70.584C65.4091 70.32 65.3611 70.052 65.2891 69.78C65.2251 69.5 65.1251 69.256 64.9891 69.048C64.6851 68.512 64.2411 68.072 63.6571 67.728C63.0811 67.376 62.3571 67.2 61.4851 67.2C60.5651 67.2 59.7851 67.4 59.1451 67.8C58.5051 68.192 58.0251 68.66 57.7051 69.204L55.7611 67.92C56.1131 67.4 56.5771 66.94 57.1531 66.54C57.7291 66.14 58.3931 65.824 59.1451 65.592C59.8971 65.36 60.7051 65.244 61.5691 65.244C62.9131 65.244 64.0251 65.5 64.9051 66.012C65.7851 66.524 66.4291 67.2 66.8371 68.04C67.0451 68.464 67.2091 68.928 67.3291 69.432C67.4491 69.936 67.5211 70.56 67.5451 71.304C67.5611 72.088 67.5771 72.756 67.5931 73.308C67.6171 73.86 67.6411 74.336 67.6651 74.736C67.7051 75.256 67.7851 75.592 67.9051 75.744C68.0251 75.896 68.1971 75.972 68.4211 75.972C68.6771 75.972 68.8931 75.864 69.0691 75.648C69.2451 75.424 69.3451 75.112 69.3691 74.712L70.5211 75.984C70.4731 76.656 70.2371 77.168 69.8131 77.52C69.3891 77.872 68.8931 78.048 68.3251 78.048C67.8771 78.048 67.4811 77.964 67.1371 77.796C66.8011 77.62 66.5331 77.396 66.3331 77.124C66.1331 76.852 66.0171 76.572 65.9851 76.284C65.8251 76.58 65.5131 76.88 65.0491 77.184C64.5931 77.488 64.0291 77.744 63.3571 77.952C62.6931 78.152 61.9571 78.252 61.1491 78.252ZM61.5811 76.368C62.1011 76.368 62.6091 76.288 63.1051 76.128C63.6011 75.968 64.0571 75.756 64.4731 75.492C64.8971 75.228 65.2451 74.936 65.5171 74.616C65.5091 74.12 65.5091 73.68 65.5171 73.296C65.5251 72.904 65.5371 72.544 65.5531 72.216C65.3211 72.136 64.8771 72.032 64.2211 71.904C63.5651 71.768 62.8251 71.7 62.0011 71.7C61.2891 71.7 60.6411 71.796 60.0571 71.988C59.4811 72.172 59.0211 72.44 58.6771 72.792C58.3411 73.144 58.1731 73.568 58.1731 74.064C58.1731 74.664 58.3171 75.132 58.6051 75.468C58.9011 75.796 59.3051 76.028 59.8171 76.164C60.3291 76.3 60.9171 76.368 61.5811 76.368ZM80.5881 77.964C80.5881 77.828 80.5841 77.624 80.5761 77.352C80.5681 77.072 80.5641 76.8 80.5641 76.536C80.5641 76.264 80.5641 76.064 80.5641 75.936C80.5081 76.032 80.3841 76.188 80.1921 76.404C80.0001 76.62 79.7281 76.848 79.3761 77.088C79.0321 77.328 78.5961 77.532 78.0681 77.7C77.5401 77.868 76.9121 77.952 76.1841 77.952C75.1121 77.952 74.1961 77.72 73.4361 77.256C72.6761 76.784 72.0961 76.128 71.6961 75.288C71.3041 74.448 71.1081 73.476 71.1081 72.372C71.1081 71.34 71.3081 70.38 71.7081 69.492C72.1081 68.596 72.7081 67.872 73.5081 67.32C74.3081 66.768 75.3081 66.492 76.5081 66.492C77.2281 66.492 77.8681 66.572 78.4281 66.732C78.9961 66.892 79.4681 67.084 79.8441 67.308C80.2281 67.524 80.5001 67.716 80.6601 67.884C80.6681 67.532 80.6881 67.096 80.7201 66.576C80.7601 66.056 80.8001 65.504 80.8401 64.92C80.8801 64.336 80.9201 63.772 80.9601 63.228C81.0001 62.676 81.0361 62.192 81.0681 61.776C81.1081 61.36 81.1361 61.068 81.1521 60.9C81.4721 60.9 81.8241 60.916 82.2081 60.948C82.6001 60.98 82.9361 61.024 83.2161 61.08C83.0721 62.952 82.9601 64.816 82.8801 66.672C82.8081 68.52 82.7601 70.388 82.7361 72.276C82.7121 74.156 82.7001 76.072 82.7001 78.024C82.5801 78.024 82.3761 78.02 82.0881 78.012C81.8081 78.012 81.5241 78.008 81.2361 78C80.9481 77.984 80.7321 77.972 80.5881 77.964ZM76.7601 75.744C77.3121 75.744 77.8041 75.664 78.2361 75.504C78.6681 75.336 79.0361 75.136 79.3401 74.904C79.6441 74.664 79.8921 74.428 80.0841 74.196C80.2841 73.956 80.4241 73.764 80.5041 73.62C80.5041 73.436 80.5041 73.168 80.5041 72.816C80.5121 72.456 80.5161 72.08 80.5161 71.688C80.5241 71.288 80.5281 70.916 80.5281 70.572C80.5361 70.228 80.5441 69.972 80.5521 69.804C80.3681 69.636 80.0921 69.452 79.7241 69.252C79.3641 69.052 78.9401 68.88 78.4521 68.736C77.9641 68.592 77.4401 68.52 76.8801 68.52C75.7361 68.52 74.8601 68.856 74.2521 69.528C73.6521 70.192 73.3521 71.096 73.3521 72.24C73.3521 73.392 73.6441 74.264 74.2281 74.856C74.8201 75.448 75.6641 75.744 76.7601 75.744ZM91.8839 78.372C89.7879 78.372 88.2399 77.788 87.2399 76.62C86.2399 75.452 85.7399 73.772 85.7399 71.58C85.7399 70.196 85.9959 69.028 86.5079 68.076C87.0279 67.124 87.7479 66.4 88.6679 65.904C89.5959 65.408 90.6759 65.16 91.9079 65.16C93.2119 65.16 94.2879 65.464 95.1359 66.072C95.9839 66.672 96.6119 67.512 97.0199 68.592C97.4359 69.664 97.6439 70.912 97.6439 72.336C97.6439 73.56 97.4159 74.624 96.9599 75.528C96.5039 76.424 95.8439 77.124 94.9799 77.628C94.1239 78.124 93.0919 78.372 91.8839 78.372ZM91.7879 76.224C92.4359 76.224 92.9919 76.104 93.4559 75.864C93.9199 75.624 94.2959 75.304 94.5839 74.904C94.8719 74.496 95.0839 74.04 95.2199 73.536C95.3639 73.032 95.4359 72.516 95.4359 71.988C95.4359 71.028 95.3039 70.172 95.0399 69.42C94.7759 68.668 94.3759 68.08 93.8399 67.656C93.3039 67.224 92.6199 67.008 91.7879 67.008C90.9719 67.008 90.2879 67.204 89.7359 67.596C89.1839 67.988 88.7679 68.528 88.4879 69.216C88.2159 69.904 88.0799 70.692 88.0799 71.58C88.0799 72.948 88.3959 74.064 89.0279 74.928C89.6599 75.792 90.5799 76.224 91.7879 76.224ZM102.094 67.368C102.334 66.96 102.682 66.588 103.138 66.252C103.602 65.916 104.122 65.648 104.698 65.448C105.282 65.248 105.866 65.148 106.45 65.148C106.826 65.148 107.206 65.184 107.59 65.256C107.974 65.32 108.274 65.412 108.49 65.532L108.01 67.944C107.818 67.864 107.57 67.78 107.266 67.692C106.97 67.596 106.602 67.548 106.162 67.548C105.69 67.548 105.218 67.636 104.746 67.812C104.282 67.98 103.854 68.212 103.462 68.508C103.07 68.804 102.742 69.144 102.478 69.528C102.59 70.088 102.698 70.772 102.802 71.58C102.914 72.388 103.014 73.216 103.102 74.064C103.19 74.912 103.262 75.688 103.318 76.392C103.374 77.088 103.402 77.612 103.402 77.964C103.058 77.996 102.638 78.016 102.142 78.024C101.646 78.032 101.19 78.032 100.774 78.024C100.774 77.28 100.758 76.496 100.726 75.672C100.694 74.84 100.642 73.992 100.57 73.128C100.506 72.256 100.422 71.388 100.318 70.524C100.214 69.66 100.09 68.824 99.9464 68.016C99.8104 67.2 99.6544 66.428 99.4784 65.7C99.6944 65.636 99.9464 65.572 100.234 65.508C100.53 65.444 100.802 65.388 101.05 65.34C101.298 65.292 101.466 65.264 101.554 65.256C101.658 65.528 101.766 65.88 101.878 66.312C101.99 66.744 102.062 67.096 102.094 67.368ZM113.465 78.108C113.281 78.108 113.045 78.104 112.757 78.096C112.477 78.096 112.193 78.088 111.905 78.072C111.625 78.056 111.385 78.032 111.185 78C111.169 77.416 111.153 76.692 111.137 75.828C111.121 74.964 111.109 74.06 111.101 73.116C111.093 72.172 111.089 71.308 111.089 70.524C111.089 69.388 111.093 68.116 111.101 66.708C111.117 65.292 111.133 63.792 111.149 62.208C111.237 62.2 111.373 62.192 111.557 62.184C111.741 62.176 111.945 62.172 112.169 62.172C112.401 62.164 112.625 62.16 112.841 62.16C113.057 62.152 113.245 62.148 113.405 62.148C113.437 63.124 113.465 64.148 113.489 65.22C113.521 66.292 113.545 67.34 113.561 68.364C113.577 69.388 113.585 70.32 113.585 71.16C113.585 71.536 113.581 71.988 113.573 72.516C113.573 73.044 113.569 73.596 113.561 74.172C113.561 74.748 113.553 75.304 113.537 75.84C113.529 76.368 113.517 76.836 113.501 77.244C113.493 77.644 113.481 77.932 113.465 78.108ZM119.038 78.18C118.886 78.18 118.694 78.176 118.462 78.168C118.238 78.16 118.002 78.148 117.754 78.132C117.506 78.124 117.27 78.112 117.046 78.096C116.822 78.088 116.634 78.076 116.482 78.06C116.562 77.644 116.674 77.06 116.818 76.308C116.97 75.556 117.15 74.704 117.358 73.752C117.566 72.792 117.786 71.788 118.018 70.74C118.25 69.692 118.486 68.652 118.726 67.62C118.974 66.58 119.21 65.604 119.434 64.692C119.658 63.78 119.858 62.996 120.034 62.34C120.522 62.268 121.114 62.196 121.81 62.124C122.514 62.052 123.23 62.016 123.958 62.016C124.27 62.016 124.594 62.024 124.93 62.04C125.266 62.056 125.586 62.084 125.89 62.124C126.042 62.828 126.194 63.668 126.346 64.644C126.506 65.62 126.658 66.756 126.802 68.052C126.954 69.348 127.102 70.82 127.246 72.468C127.398 74.108 127.546 75.952 127.69 78C127.506 78.032 127.262 78.06 126.958 78.084C126.654 78.116 126.338 78.14 126.01 78.156C125.69 78.172 125.394 78.18 125.122 78.18C125.106 77.948 125.09 77.644 125.074 77.268C125.058 76.892 125.038 76.476 125.014 76.02C124.99 75.556 124.966 75.096 124.942 74.64C124.918 74.176 124.894 73.748 124.87 73.356C124.846 72.964 124.826 72.644 124.81 72.396C124.554 72.404 124.242 72.416 123.874 72.432C123.506 72.448 123.118 72.472 122.71 72.504C122.31 72.528 121.922 72.556 121.546 72.588C121.178 72.62 120.858 72.652 120.586 72.684C120.314 72.716 120.134 72.74 120.046 72.756C119.902 73.436 119.762 74.124 119.626 74.82C119.49 75.508 119.37 76.148 119.266 76.74C119.162 77.324 119.086 77.804 119.038 78.18ZM120.37 70.692C120.666 70.628 121.074 70.568 121.594 70.512C122.122 70.456 122.67 70.408 123.238 70.368C123.814 70.328 124.314 70.3 124.738 70.284C124.722 70.036 124.694 69.64 124.654 69.096C124.614 68.552 124.566 67.956 124.51 67.308C124.454 66.66 124.398 66.048 124.342 65.472C124.294 64.888 124.242 64.436 124.186 64.116C124.002 64.116 123.738 64.128 123.394 64.152C123.058 64.168 122.73 64.192 122.41 64.224C122.098 64.248 121.878 64.268 121.75 64.284C121.702 64.492 121.63 64.808 121.534 65.232C121.438 65.648 121.326 66.148 121.198 66.732C121.07 67.308 120.934 67.936 120.79 68.616C120.654 69.288 120.514 69.98 120.37 70.692Z" fill="white"/>
</g>
<defs>
<clipPath id="clip0_2001_2">
<rect width="145" height="145" fill="white"/>
</clipPath>
</defs>
</svg>
